# xmcd
#
# Track frame offsets:
#	150
#	16014
#	31583
#	46993
#	70384
#	84902
#
# Disc length: 1483 seconds
#
# Revision: 1
# Processed by: cddbd v1.5.2PL0 Copyright (c) Steve Scherf et al.
# Submitted via: audiograbber 1.83.01
#
DISCID=3805c906
DTITLE=Riviera - The Blue Ribbon Brothers American Music E.P.
DYEAR=2001
DGENRE=Alt. Country
TTITLE0=Going Down
TTITLE1=Angie (You Don't Know)
TTITLE2=Aging Of An Idealist
TTITLE3=Another Round
TTITLE4=Droll Tales Of Guitar City
TTITLE5=I Got A Problem
EXTD=
EXTT0=
EXTT1=
EXTT2=
EXTT3=
EXTT4=
EXTT5=
PLAYORDER=
